<svg xmlns="http://www.w3.org/2000/svg" version="1.1" width="507" height="768">
<rect x="0" y="0" width="507" height="768" fill="#f0f0f0" />
<g transform="scale(3.0) translate(0.5 0.5)">
<ellipse fill="#4b330f" fill-opacity="0.968627" cx="78" cy="133" rx="135" ry="246" />
<ellipse fill="#a28530" fill-opacity="0.803922" cx="108" cy="27" rx="127" ry="43" />
<ellipse fill="#fbba34" fill-opacity="0.835294" cx="82" cy="122" rx="22" ry="18" />
<ellipse fill="#0b0002" fill-opacity="0.764706" cx="137" cy="206" rx="61" ry="83" />
<ellipse fill="#190404" fill-opacity="0.847059" cx="106" cy="69" rx="12" ry="38" />
<ellipse fill="#0b0209" fill-opacity="0.709804" cx="13" cy="233" rx="29" ry="72" />
<ellipse fill="#fb8619" fill-opacity="0.494118" cx="64" cy="208" rx="25" ry="16" />
<ellipse fill="#0a0204" fill-opacity="0.686275" cx="63" cy="165" rx="42" ry="25" />
<ellipse fill="#ff9a24" fill-opacity="0.537255" cx="76" cy="63" rx="15" ry="28" />
<ellipse fill="#0e0408" fill-opacity="0.819608" cx="58" cy="248" rx="168" ry="18" />
<ellipse fill="#280200" fill-opacity="0.733333" cx="91" cy="30" rx="14" ry="9" />
<ellipse fill="#d0b34a" fill-opacity="0.584314" cx="30" cy="33" rx="29" ry="20" />
<ellipse fill="#080d09" fill-opacity="0.419608" cx="122" cy="83" rx="22" ry="34" />
<ellipse fill="#00090f" fill-opacity="0.333333" cx="37" cy="98" rx="39" ry="23" />
<ellipse fill="#c9ae3c" fill-opacity="0.474510" cx="142" cy="36" rx="31" ry="20" />
<ellipse fill="#904614" fill-opacity="0.423529" cx="80" cy="214" rx="47" ry="11" />
<ellipse fill="#f5a328" fill-opacity="0.674510" cx="55" cy="196" rx="13" ry="7" />
<ellipse fill="#180000" fill-opacity="0.560784" cx="56" cy="61" rx="5" ry="17" />
<ellipse fill="#fece42" fill-opacity="0.674510" cx="73" cy="128" rx="17" ry="9" />
<ellipse fill="#e28719" fill-opacity="0.490196" cx="89" cy="107" rx="15" ry="10" />
<ellipse fill="#692e09" fill-opacity="0.615686" cx="81" cy="57" rx="23" ry="4" />
<ellipse fill="#190e09" fill-opacity="0.752941" cx="45" cy="146" rx="10" ry="44" />
<ellipse fill="#0d0505" fill-opacity="0.698039" cx="94" cy="181" rx="38" ry="19" />
<ellipse fill="#feb934" fill-opacity="0.556863" cx="76" cy="44" rx="13" ry="12" />
<ellipse fill="#784515" fill-opacity="0.529412" cx="74" cy="143" rx="17" ry="7" />
<ellipse fill="#170e0d" fill-opacity="0.780392" cx="33" cy="207" rx="17" ry="5" />
<ellipse fill="#854a13" fill-opacity="0.486275" cx="19" cy="132" rx="10" ry="32" />
<ellipse fill="#3e190b" fill-opacity="0.423529" cx="117" cy="128" rx="19" ry="35" />
<ellipse fill="#663a15" fill-opacity="0.623529" cx="27" cy="191" rx="12" ry="10" />
<ellipse fill="#131302" fill-opacity="0.670588" cx="168" cy="93" rx="9" ry="23" />
<ellipse fill="#c9b031" fill-opacity="0.482353" cx="151" cy="50" rx="10" ry="22" />
<ellipse fill="#ff9b20" fill-opacity="0.509804" cx="70" cy="204" rx="14" ry="6" />
<ellipse fill="#1f160f" fill-opacity="0.701961" cx="0" cy="111" rx="7" ry="58" />
<ellipse fill="#d3701d" fill-opacity="0.380392" cx="45" cy="222" rx="9" ry="12" />
<ellipse fill="#d5b248" fill-opacity="0.647059" cx="45" cy="46" rx="10" ry="13" />
<ellipse fill="#6e6a40" fill-opacity="0.521569" cx="38" cy="97" rx="15" ry="6" />
<ellipse fill="#240000" fill-opacity="0.478431" cx="84" cy="28" rx="18" ry="6" />
<ellipse fill="#75712f" fill-opacity="0.788235" cx="105" cy="0" rx="161" ry="8" />
<ellipse fill="#240603" fill-opacity="0.662745" cx="95" cy="36" rx="6" ry="10" />
<ellipse fill="#16040a" fill-opacity="0.435294" cx="64" cy="236" rx="13" ry="20" />
<ellipse fill="#070204" fill-opacity="0.556863" cx="147" cy="226" rx="23" ry="77" />
<ellipse fill="#170000" fill-opacity="0.368627" cx="59" cy="95" rx="8" ry="26" />
<ellipse fill="#8f730a" fill-opacity="0.478431" cx="149" cy="115" rx="13" ry="9" />
<ellipse fill="#aa5b0f" fill-opacity="0.454902" cx="111" cy="125" rx="16" ry="5" />
<ellipse fill="#635a24" fill-opacity="0.752941" cx="19" cy="60" rx="18" ry="7" />
<ellipse fill="#160b08" fill-opacity="0.749020" cx="35" cy="152" rx="9" ry="19" />
<ellipse fill="#b6520a" fill-opacity="0.376471" cx="92" cy="62" rx="6" ry="21" />
<ellipse fill="#a28837" fill-opacity="0.576471" cx="121" cy="20" rx="29" ry="8" />
<ellipse fill="#1a0004" fill-opacity="0.494118" cx="91" cy="92" rx="36" ry="4" />
<ellipse fill="#a08935" fill-opacity="0.650980" cx="35" cy="21" rx="37" ry="11" />
<ellipse fill="#343413" fill-opacity="0.737255" cx="142" cy="86" rx="22" ry="15" />
<ellipse fill="#7f7e23" fill-opacity="0.509804" cx="151" cy="68" rx="19" ry="4" />
<ellipse fill="#120000" fill-opacity="0.537255" cx="59" cy="51" rx="2" ry="14" />
<ellipse fill="#431909" fill-opacity="0.470588" cx="90" cy="55" rx="14" ry="4" />
<ellipse fill="#291f11" fill-opacity="0.549020" cx="48" cy="70" rx="13" ry="9" />
<ellipse fill="#030004" fill-opacity="0.431373" cx="137" cy="132" rx="10" ry="16" />
<ellipse fill="#ffb539" fill-opacity="0.447059" cx="69" cy="67" rx="6" ry="9" />
<ellipse fill="#ff6302" fill-opacity="0.117647" cx="160" cy="140" rx="7" ry="24" />
<ellipse fill="#755711" fill-opacity="0.462745" cx="29" cy="122" rx="10" ry="12" />
<ellipse fill="#aa5e14" fill-opacity="0.290196" cx="103" cy="207" rx="24" ry="4" />
<ellipse fill="#100806" fill-opacity="0.572549" cx="100" cy="182" rx="29" ry="24" />
<ellipse fill="#823c13" fill-opacity="0.470588" cx="13" cy="148" rx="9" ry="21" />
<ellipse fill="#fcd145" fill-opacity="0.486275" cx="82" cy="125" rx="13" ry="14" />
<ellipse fill="#cbac47" fill-opacity="0.705882" cx="28" cy="44" rx="27" ry="6" />
<ellipse fill="#100507" fill-opacity="0.478431" cx="115" cy="233" rx="27" ry="19" />
<ellipse fill="#2f2d16" fill-opacity="0.564706" cx="10" cy="100" rx="7" ry="35" />
<ellipse fill="#673a14" fill-opacity="0.380392" cx="61" cy="141" rx="16" ry="8" />
<ellipse fill="#d9821b" fill-opacity="0.584314" cx="67" cy="202" rx="9" ry="9" />
<ellipse fill="#120a0d" fill-opacity="0.635294" cx="12" cy="222" rx="25" ry="26" />
<ellipse fill="#726400" fill-opacity="0.211765" cx="168" cy="36" rx="13" ry="31" />
<ellipse fill="#110306" fill-opacity="0.482353" cx="118" cy="105" rx="7" ry="18" />
<ellipse fill="#5b240b" fill-opacity="0.658824" cx="77" cy="76" rx="4" ry="5" />
<ellipse fill="#f9c03d" fill-opacity="0.627451" cx="73" cy="51" rx="2" ry="18" />
<ellipse fill="#65441d" fill-opacity="0.450980" cx="124" cy="151" rx="8" ry="7" />
<ellipse fill="#d0730d" fill-opacity="0.368627" cx="98" cy="121" rx="5" ry="18" />
<ellipse fill="#fa7c11" fill-opacity="0.298039" cx="59" cy="127" rx="6" ry="9" />
<ellipse fill="#feab2c" fill-opacity="0.529412" cx="82" cy="66" rx="3" ry="10" />
<ellipse fill="#130f0c" fill-opacity="0.305882" cx="102" cy="150" rx="15" ry="18" />
<ellipse fill="#5b5c25" fill-opacity="0.403922" cx="127" cy="53" rx="12" ry="8" />
<ellipse fill="#41210f" fill-opacity="0.525490" cx="1" cy="127" rx="24" ry="7" />
<ellipse fill="#1a0706" fill-opacity="0.631373" cx="104" cy="65" rx="6" ry="37" />
<ellipse fill="#040000" fill-opacity="0.501961" cx="68" cy="98" rx="7" ry="8" />
<ellipse fill="#4a1b0b" fill-opacity="0.431373" cx="91" cy="93" rx="14" ry="9" />
<ellipse fill="#9e760d" fill-opacity="0.482353" cx="150" cy="103" rx="5" ry="5" />
<ellipse fill="#c3a345" fill-opacity="0.627451" cx="128" cy="39" rx="15" ry="6" />
<ellipse fill="#3d4121" fill-opacity="0.388235" cx="26" cy="85" rx="13" ry="27" />
<ellipse fill="#9d8634" fill-opacity="0.788235" cx="83" cy="17" rx="82" ry="4" />
<ellipse fill="#2e0000" fill-opacity="0.556863" cx="67" cy="32" rx="4" ry="3" />
<ellipse fill="#ab8c38" fill-opacity="0.580392" cx="121" cy="27" rx="15" ry="12" />
<ellipse fill="#c56c0f" fill-opacity="0.474510" cx="85" cy="44" rx="4" ry="12" />
<ellipse fill="#5b260d" fill-opacity="0.658824" cx="102" cy="213" rx="21" ry="4" />
<ellipse fill="#f5a926" fill-opacity="0.392157" cx="90" cy="62" rx="7" ry="4" />
<ellipse fill="#110906" fill-opacity="0.478431" cx="77" cy="176" rx="27" ry="19" />
<ellipse fill="#6d300d" fill-opacity="0.611765" cx="107" cy="123" rx="6" ry="11" />
<ellipse fill="#f4bd3b" fill-opacity="0.474510" cx="75" cy="40" rx="10" ry="9" />
<ellipse fill="#b46f18" fill-opacity="0.623529" cx="84" cy="105" rx="11" ry="3" />
<ellipse fill="#966f17" fill-opacity="0.474510" cx="15" cy="156" rx="9" ry="5" />
<ellipse fill="#ea861c" fill-opacity="0.298039" cx="54" cy="221" rx="5" ry="6" />
<ellipse fill="#783011" fill-opacity="0.513725" cx="85" cy="222" rx="9" ry="5" />
<ellipse fill="#ffc63a" fill-opacity="0.462745" cx="51" cy="192" rx="5" ry="4" />
</g>
</svg>