<svg xmlns="http://www.w3.org/2000/svg" version="1.1" width="256" height="143">
<rect x="0" y="0" width="256" height="143" fill="#f0f0f0" />
<g transform="scale(1.000000) translate(0.5 0.5)">
<ellipse fill="#392a12" fill-opacity="0.733333" cx="90" cy="129" rx="182" ry="87" />
<ellipse fill="#c3c6cc" fill-opacity="0.760784" cx="198" cy="48" rx="76" ry="44" />
<ellipse fill="#a7adb6" fill-opacity="0.701961" cx="54" cy="25" rx="68" ry="45" />
<ellipse fill="#49381d" fill-opacity="0.627451" cx="70" cy="113" rx="188" ry="32" />
<ellipse fill="#3e2410" fill-opacity="0.690196" cx="110" cy="50" rx="21" ry="13" />
<ellipse fill="#001201" fill-opacity="0.478431" cx="27" cy="90" rx="82" ry="17" />
<ellipse fill="#6d7065" fill-opacity="0.847059" cx="167" cy="81" rx="14" ry="20" />
<ellipse fill="#d4dadf" fill-opacity="0.466667" cx="211" cy="75" rx="18" ry="27" />
<ellipse fill="#9d4709" fill-opacity="0.764706" cx="118" cy="85" rx="13" ry="24" />
<ellipse fill="#423a27" fill-opacity="0.560784" cx="252" cy="110" rx="28" ry="31" />
<ellipse fill="#cdd0d6" fill-opacity="0.921569" cx="161" cy="9" rx="111" ry="30" />
<ellipse fill="#d5d8dd" fill-opacity="0.643137" cx="139" cy="57" rx="9" ry="31" />
<ellipse fill="#cbd3db" fill-opacity="0.572549" cx="41" cy="50" rx="25" ry="12" />
<ellipse fill="#9c8366" fill-opacity="0.431373" cx="120" cy="111" rx="132" ry="7" />
<ellipse fill="#c0c6d1" fill-opacity="0.482353" cx="78" cy="62" rx="29" ry="7" />
<ellipse fill="#1d1d09" fill-opacity="0.513725" cx="163" cy="77" rx="4" ry="19" />
<ellipse fill="#0f0000" fill-opacity="0.552941" cx="70" cy="50" rx="5" ry="7" />
<ellipse fill="#bdcedd" fill-opacity="0.243137" cx="155" cy="84" rx="31" ry="9" />
<ellipse fill="#392815" fill-opacity="0.580392" cx="154" cy="125" rx="222" ry="8" />
<ellipse fill="#212a11" fill-opacity="0.478431" cx="12" cy="83" rx="13" ry="27" />
<ellipse fill="#48341c" fill-opacity="0.858824" cx="243" cy="142" rx="88" ry="5" />
<ellipse fill="#d0d1d6" fill-opacity="0.839216" cx="198" cy="38" rx="54" ry="27" />
<ellipse fill="#6c5a43" fill-opacity="1.000000" cx="232" cy="107" rx="68" ry="8" />
<ellipse fill="#9fa6af" fill-opacity="0.537255" cx="0" cy="29" rx="21" ry="34" />
<ellipse fill="#f2c693" fill-opacity="0.231373" cx="0" cy="135" rx="91" ry="3" />
<ellipse fill="#af8d62" fill-opacity="0.450980" cx="219" cy="136" rx="46" ry="3" />
<ellipse fill="#c8ccd1" fill-opacity="0.792157" cx="82" cy="39" rx="6" ry="22" />
<ellipse fill="#2d331b" fill-opacity="0.776471" cx="155" cy="100" rx="29" ry="4" />
<ellipse fill="#363825" fill-opacity="0.592157" cx="67" cy="83" rx="41" ry="11" />
<ellipse fill="#c8c9cc" fill-opacity="0.564706" cx="255" cy="61" rx="78" ry="23" />
<ellipse fill="#272721" fill-opacity="0.337255" cx="57" cy="75" rx="9" ry="14" />
<ellipse fill="#f67100" fill-opacity="0.450980" cx="117" cy="92" rx="5" ry="15" />
<ellipse fill="#471800" fill-opacity="0.329412" cx="112" cy="63" rx="7" ry="29" />
<ellipse fill="#3a2824" fill-opacity="0.513725" cx="135" cy="93" rx="15" ry="8" />
<ellipse fill="#364025" fill-opacity="0.705882" cx="192" cy="99" rx="23" ry="3" />
<ellipse fill="#14291b" fill-opacity="0.423529" cx="243" cy="90" rx="11" ry="9" />
<ellipse fill="#d5d5d7" fill-opacity="0.552941" cx="141" cy="59" rx="20" ry="5" />
<ellipse fill="#3e4926" fill-opacity="0.490196" cx="32" cy="74" rx="4" ry="17" />
<ellipse fill="#483728" fill-opacity="0.545098" cx="106" cy="48" rx="13" ry="12" />
<ellipse fill="#170f14" fill-opacity="0.611765" cx="68" cy="88" rx="11" ry="16" />
<ellipse fill="#171200" fill-opacity="0.290196" cx="165" cy="76" rx="3" ry="22" />
<ellipse fill="#1e1c21" fill-opacity="0.560784" cx="68" cy="47" rx="3" ry="7" />
<ellipse fill="#a2a5a1" fill-opacity="0.611765" cx="154" cy="79" rx="5" ry="15" />
<ellipse fill="#a6895e" fill-opacity="0.450980" cx="1" cy="137" rx="8" ry="11" />
<ellipse fill="#bdbfc0" fill-opacity="0.517647" cx="225" cy="81" rx="60" ry="4" />
<ellipse fill="#3f270e" fill-opacity="0.509804" cx="212" cy="116" rx="52" ry="2" />
<ellipse fill="#bec4ca" fill-opacity="0.486275" cx="41" cy="40" rx="10" ry="33" />
<ellipse fill="#595c4d" fill-opacity="0.427451" cx="83" cy="76" rx="8" ry="15" />
<ellipse fill="#280c00" fill-opacity="0.615686" cx="76" cy="54" rx="2" ry="4" />
<ellipse fill="#b7bebf" fill-opacity="0.639216" cx="219" cy="93" rx="4" ry="9" />
<ellipse fill="#e4ffff" fill-opacity="0.207843" cx="93" cy="65" rx="11" ry="8" />
<ellipse fill="#2b321b" fill-opacity="0.450980" cx="237" cy="83" rx="2" ry="7" />
<ellipse fill="#d8dce8" fill-opacity="0.458824" cx="70" cy="65" rx="5" ry="8" />
<ellipse fill="#bbb9bc" fill-opacity="0.490196" cx="135" cy="73" rx="6" ry="19" />
<ellipse fill="#633928" fill-opacity="0.600000" cx="127" cy="72" rx="4" ry="11" />
<ellipse fill="#3f2e1a" fill-opacity="0.596078" cx="247" cy="138" rx="25" ry="3" />
<ellipse fill="#898f8b" fill-opacity="0.745098" cx="228" cy="87" rx="7" ry="4" />
<ellipse fill="#7d8c86" fill-opacity="0.513725" cx="182" cy="92" rx="7" ry="7" />
<ellipse fill="#c2c3c7" fill-opacity="0.572549" cx="255" cy="0" rx="18" ry="86" />
<ellipse fill="#1f2213" fill-opacity="0.533333" cx="77" cy="100" rx="30" ry="5" />
<ellipse fill="#686a58" fill-opacity="0.635294" cx="175" cy="73" rx="11" ry="4" />
<ellipse fill="#404b31" fill-opacity="0.384314" cx="97" cy="84" rx="4" ry="23" />
<ellipse fill="#998565" fill-opacity="0.980392" cx="237" cy="133" rx="18" ry="1" />
<ellipse fill="#343d27" fill-opacity="0.474510" cx="9" cy="59" rx="2" ry="11" />
<ellipse fill="#87785c" fill-opacity="0.462745" cx="53" cy="108" rx="134" ry="2" />
<ellipse fill="#ced0d5" fill-opacity="0.505882" cx="208" cy="59" rx="22" ry="35" />
<ellipse fill="#98a29c" fill-opacity="0.458824" cx="37" cy="65" rx="3" ry="14" />
<ellipse fill="#1e2618" fill-opacity="0.643137" cx="243" cy="95" rx="19" ry="4" />
<ellipse fill="#212f1b" fill-opacity="0.560784" cx="142" cy="94" rx="3" ry="12" />
<ellipse fill="#bdc2ca" fill-opacity="0.482353" cx="39" cy="25" rx="32" ry="34" />
<ellipse fill="#0f1203" fill-opacity="0.439216" cx="2" cy="104" rx="36" ry="4" />
<ellipse fill="#c95c00" fill-opacity="0.537255" cx="115" cy="89" rx="6" ry="14" />
<ellipse fill="#7d6a4f" fill-opacity="0.533333" cx="176" cy="105" rx="40" ry="3" />
<ellipse fill="#cccccd" fill-opacity="0.596078" cx="173" cy="83" rx="6" ry="4" />
<ellipse fill="#a18967" fill-opacity="0.858824" cx="202" cy="135" rx="20" ry="2" />
<ellipse fill="#695237" fill-opacity="0.600000" cx="49" cy="137" rx="115" ry="3" />
<ellipse fill="#d0d2d7" fill-opacity="0.811765" cx="159" cy="36" rx="30" ry="22" />
<ellipse fill="#cacdcf" fill-opacity="0.529412" cx="143" cy="74" rx="14" ry="6" />
<ellipse fill="#776247" fill-opacity="0.517647" cx="139" cy="111" rx="40" ry="8" />
<ellipse fill="#252511" fill-opacity="0.466667" cx="159" cy="73" rx="4" ry="4" />
<ellipse fill="#392d1a" fill-opacity="0.584314" cx="151" cy="131" rx="68" ry="4" />
<ellipse fill="#c6cad1" fill-opacity="0.458824" cx="54" cy="49" rx="13" ry="8" />
<ellipse fill="#d88e4b" fill-opacity="0.454902" cx="124" cy="64" rx="5" ry="6" />
<ellipse fill="#b0b7be" fill-opacity="0.458824" cx="24" cy="48" rx="5" ry="22" />
<ellipse fill="#84867a" fill-opacity="0.749020" cx="154" cy="67" rx="7" ry="3" />
<ellipse fill="#7c8170" fill-opacity="0.529412" cx="146" cy="81" rx="7" ry="3" />
<ellipse fill="#7c6549" fill-opacity="0.654902" cx="20" cy="113" rx="21" ry="6" />
<ellipse fill="#0e244a" fill-opacity="0.501961" cx="72" cy="43" rx="3" ry="3" />
<ellipse fill="#45482a" fill-opacity="0.407843" cx="90" cy="89" rx="17" ry="12" />
<ellipse fill="#dcdedf" fill-opacity="0.541176" cx="175" cy="69" rx="3" ry="3" />
<ellipse fill="#fff2cb" fill-opacity="0.101961" cx="42" cy="133" rx="36" ry="2" />
<ellipse fill="#cccfd6" fill-opacity="0.486275" cx="130" cy="26" rx="19" ry="17" />
<ellipse fill="#444f3a" fill-opacity="0.341176" cx="191" cy="97" rx="6" ry="14" />
<ellipse fill="#8e90a0" fill-opacity="0.196078" cx="10" cy="0" rx="20" ry="23" />
<ellipse fill="#473525" fill-opacity="0.517647" cx="116" cy="47" rx="15" ry="7" />
<ellipse fill="#6e4f4d" fill-opacity="0.470588" cx="128" cy="84" rx="8" ry="5" />
<ellipse fill="#4a5330" fill-opacity="0.490196" cx="48" cy="79" rx="11" ry="9" />
<ellipse fill="#a2aab2" fill-opacity="0.498039" cx="50" cy="57" rx="25" ry="3" />
<ellipse fill="#270b02" fill-opacity="0.682353" cx="106" cy="70" rx="3" ry="4" />
<ellipse fill="#363426" fill-opacity="0.525490" cx="163" cy="84" rx="3" ry="20" />
</g>
</svg>